<?xml version="1.0" encoding="UTF-8" standalone="no"?>
<!-- Created with Inkscape (http://www.inkscape.org/) -->

<svg
   version="1.1"
   viewBox="0 0 6826.6665 6826.6665"
   xmlns="http://www.w3.org/2000/svg"
   style={{ height, width: 'auto' }}
   aria-label="The Foundation for African Empowerment"
   role="img"
   >
  <defs
     id="defs1" />
  <g
     id="g1">
    <path
       fill={textColor}
       d="M 3293.9999,6825.1867 C 2628.1195,6801.7817 1988.4815,6584.536 1442,6196.1761 1315.4219,6106.2228 1192.4521,6005.2622 1074.0507,5894.0828 1043.0719,5864.9935 961.67303,5783.5946 932.58375,5752.6158 668.01055,5470.8566 458.92695,5159.6407 301.99524,4813.9999 118.79003,4410.4919 17.374099,3977.6873 1.4373793,3531.3332 c -1.35504405,-37.9519 -1.35504405,-198.048 0,-235.9999 C 20.070941,2773.4464 155.09668,2272.245 401.05357,1812 532.30495,1566.3968 696.53864,1333.5101 885.26096,1125.3841 959.58377,1043.4197 1044.2794,958.73623 1125.3841,885.29543 1529.6096,519.26671 2008.2803,257.16832 2529.9999,116.19152 2777.0703,49.429232 3035.4607,10.660764 3294.6666,1.4622024 c 38.806,-1.37712758 198.5273,-1.37712758 237.3333,0 C 4114.6707,22.139719 4674.425,189.40807 5174.6665,492.33141 c 310.1247,187.7973 594.2821,429.2428 831.5043,706.52049 479.3554,560.2952 764.3482,1255.1778 813.0769,1982.4814 5.8026,86.6081 7.034,127.2226 7.034,232 0,104.7773 -1.2314,145.3918 -7.034,231.9999 -43.786,653.5309 -278.6708,1283.0214 -675.8713,1811.3333 -355.4473,472.7764 -823.0378,844.451 -1362.0432,1082.6499 -392.6574,173.5244 -816.5921,270.5343 -1249.3333,285.8877 -38.1288,1.3527 -199.3533,1.341 -238,-0.017 z m 249.3333,-379.7845 c 116.0467,-5.8587 203.8238,-14.1422 305.3334,-28.8144 257.0599,-37.1554 510.3038,-108.4848 751.3333,-211.6227 100.5755,-43.0368 213.9892,-99.4914 309.3333,-153.9787 201.1326,-114.9433 380.7226,-246.3724 556,-406.8968 33.5588,-30.7341 131.9651,-128.2376 161.572,-160.0897 208.6363,-224.4578 373.9061,-462.5147 506.3358,-729.3333 98.7415,-198.9438 171.9497,-397.6637 225.4602,-612 43.9444,-176.0195 72.0504,-357.5129 83.2113,-537.3334 4.6139,-74.3385 5.3343,-100.2663 5.3343,-191.9999 0,-91.7337 -0.7204,-117.6615 -5.3343,-192 -19.6687,-316.8965 -90.4587,-630.43 -209.7817,-929.136 C 6106.5036,1977.7093 5921.8158,1676.8192 5696.772,1420 5645.3984,1361.3725 5619.2005,1333.5836 5552.8006,1267.2846 5432.2324,1146.8998 5320.3053,1051.3874 5184.6665,953.13903 5004.8089,822.86132 4804.8368,709.48859 4600.1392,621.74545 4285.0631,486.68885 3945.9078,405.89231 3605.3332,384.75403 c -74.5953,-4.62988 -100.2365,-5.34349 -191.9999,-5.34349 -91.7635,0 -117.4047,0.71361 -192,5.34349 -340.7347,21.14821 -679.5818,101.87135 -994.806,236.99142 -101.2837,43.41503 -213.9799,99.5217 -309.194,153.93466 -177.2386,101.28831 -343.3988,219.58759 -496.6667,353.60639 -94.5758,82.6979 -200.2656,188.0947 -285.5049,284.7135 -211.19271,239.3869 -386.59932,517.0015 -513.47118,812.6666 -134.74956,314.0235 -215.813,654.3303 -236.93649,994.6667 -4.59806,74.0826 -5.32508,100.296 -5.32508,192 0,91.7039 0.72702,117.9173 5.32508,191.9999 32.8528,529.3161 207.82335,1044.7894 505.30805,1488.6667 88.64284,132.2641 177.88392,245.6043 292.37812,371.3333 34.604,37.9996 139.4363,142.7782 179.5598,179.4678 157.411,143.9396 314.101,261.4313 492.6666,369.4189 134.2122,81.1649 288.5659,158.1384 434.6667,216.7609 319.6375,128.2535 654.4561,200.1652 998,214.3485 19.0666,0.7872 40.3666,1.6281 47.3333,1.8686 26.1292,0.9022 181.7552,-0.437 208.6666,-1.7957 z M 4970.1577,5429.2421 c -74.7398,-5.3498 -147.5435,-30.3466 -209.5484,-71.9473 -36.0213,-24.1677 -22.5031,-10.9512 -528.2761,-516.4847 -264.1833,-264.0583 -480.3333,-480.7172 -480.3333,-481.4642 0,-0.747 24.601,-25.9537 54.6689,-56.0149 l 54.6688,-54.6566 -191.5048,-191.5082 -191.5047,-191.5083 -18.5014,11.8327 c -167.8793,107.3676 -366.6908,176.9938 -570.4934,199.7938 -83.2715,9.3158 -180.0144,10.5271 -263.3315,3.297 -208.4079,-18.085 -404.7344,-82.1343 -583.1832,-190.2567 -149.7694,-90.7455 -284.9699,-215.2649 -389.7853,-358.9915 -135.5072,-185.8122 -221.6004,-407.222 -247.6164,-636.8064 -26.6474,-235.1559 6.9695,-466.1185 99.5368,-683.8602 12.2139,-28.7303 42.5019,-90.6697 58.3531,-119.3333 48.7634,-88.1779 105.88,-168.4836 175.9133,-247.3333 18.4007,-20.7172 77.6346,-80.524 96.5934,-97.5278 95.9976,-86.0982 189.5064,-150.5451 297.5198,-205.0528 109.0625,-55.0371 213.8796,-91.8462 332,-116.5901 124.0334,-25.9825 251.9256,-34.1085 380,-24.1442 279.0489,21.7103 542.5203,128.7045 756.0984,307.0474 208.5262,174.1243 359.0988,405.304 432.6019,664.19 36.7111,129.3002 52.9839,254.0704 50.875,390.0774 -1.0433,67.2845 -4.8203,114.2737 -14.4146,179.3334 -26.817,181.847 -95.2126,365.5883 -193.0034,518.4934 l -11.8327,18.5014 191.5083,191.5047 191.5082,191.5048 54.6566,-54.6688 c 30.0612,-30.0679 55.2647,-54.6689 56.0078,-54.6689 1.7406,0 953.5617,952.2825 964.1993,964.6667 26.9189,31.3384 44.635,57.9504 62.4214,93.7651 22.3427,44.9892 35.7534,91.27 42.1808,145.5682 2.4223,20.4633 2.0738,72.7331 -0.6311,94.6666 -13.9859,113.4059 -68.6932,212.9429 -156.176,284.1542 -83.4837,67.9559 -192.673,102.1878 -301.1755,94.4214 z M 2831.9999,3828.7734 c 128.3174,-11.9289 239.9976,-40.4426 351.2515,-89.6801 203.5737,-90.0955 377.1873,-243.3303 492.9568,-435.0934 80.4885,-133.323 131.0424,-281.9009 149.0301,-438 5.2863,-45.8743 6.0954,-62.7489 6.0733,-126.6666 -0.023,-66.9167 -1.1281,-86.0429 -8.0887,-140 -25.5864,-198.3392 -106.1494,-386.8828 -231.883,-542.6813 -48.4528,-60.0387 -112.6881,-123.7845 -172.4018,-171.0882 -163.3547,-129.4056 -359.0055,-209.0121 -565.6048,-230.1337 -53.7904,-5.4992 -140.6228,-7.2091 -186.6667,-3.6758 -145.5564,11.1695 -275.0952,45.5532 -401.5263,106.5778 -218.6927,105.5565 -400.2771,286.8801 -506.0909,505.364 -94.0257,194.1439 -128.2907,408.4163 -99.6212,622.9705 38.7217,289.7812 192.1076,551.3194 426.5718,727.3469 63.3886,47.5899 131.8242,88.4444 199.9999,119.3953 124.4311,56.4901 250.8802,88.0646 389.3334,97.2169 28.1183,1.8588 129.6618,0.6582 156.6666,-1.8523 z m 698.157,-1440.9232 c -8.6823,-2.0383 -21.0633,-9.4549 -28.8063,-17.256 -5.3687,-5.409 -10.008,-12.4194 -17.2059,-26 -39.8935,-75.2683 -86.6378,-138.0218 -149.4199,-200.5943 -107.348,-106.9894 -239.1773,-181.8936 -386.0582,-219.355 -60.5062,-15.4318 -117.0652,-23.3944 -183.5827,-25.8456 -27.0029,-0.995 -32.088,-1.5282 -38.7314,-4.061 -17.7457,-6.7655 -32.194,-20.7142 -38.409,-37.081 -4.4061,-11.6032 -5.0322,-28.2618 -1.4992,-39.8934 2.9836,-9.8229 10.7289,-22.8349 17.0412,-28.6293 6.4854,-5.9532 16.7607,-11.767 25.6549,-14.5158 23.4604,-7.2505 126.1448,0.9384 202.1929,16.1244 234.9726,46.9218 445.3866,180.1821 587.256,371.9234 35.7697,48.3439 81.4167,123.6025 88.2119,145.4355 3.1345,10.071 3.3201,26.0476 0.4181,35.9892 -5.7556,19.7175 -22.3585,36.6005 -42.0073,42.7159 -8.749,2.723 -25.7449,3.2287 -35.0551,1.043 z"
       id="path1" />
  </g>
</svg>
